# xmcd CD database file
#
# Track frame offsets:
#	180
#	15323
#	35419
#	50626
#	64305
#	88588
#	100770
#	116862
#	131215
#	153051
#	169367
#	185769
#	205233
#	215808
#
# Disc length: 3076 seconds
#
# Revision: 2
# Processed by: cddbd v1.5PL3 Copyright (c) Steve Scherf et al.
# Submitted via: CDex 1.51
#
DISCID=cd0c020e
DTITLE=Catfish Keith - Fresh Catfish
DYEAR=1995
DGENRE=Blues
TTITLE0=High-Heeled Sneakers
TTITLE1=Way Out West
TTITLE2=Sweet Patootie
TTITLE3=Happy All the Time
TTITLE4=Way Down in Texas
TTITLE5=Kohala March
TTITLE6=You May Think Funny
TTITLE7=Uncle Ned, Don't Lose Your Head
TTITLE8=Cairo
TTITLE9=Asked You for a Favor
TTITLE10=Streamline Train
TTITLE11=Down by the Wishing Well
TTITLE12=Getting Away with Something
TTITLE13=God Don't Never Change
EXTD=Fish Tail Records\nP.O. Box 2561\nIowa City, IA  52244 USA\n\n\nCutting edge acoustic blues innovator Catfish Keith has been singing his foot-stomping, string-twanging original style of deep blues and American roots music, headlining concerts and fe
EXTD=stivals with a glaxy of blues, folk, and rock legends world-wide.\n\nThe 16 year veteran has earned nominatioins for the prestigious W.C. Handy Award for Best Country/Acoustic Blues Album and for Best Overseas Artist by the British Blues Connection.
EXTD=All four of his previous albums have reached Number One on independent radio chartsaround the globe.\n\nFresh Catfish captures Keith live in the studio, playing the music he loves on his acoustic guitar and sliding bottleneck style on the old Nati
EXTD=onal Steel-bodied guitar, singing originals, blues classics and a couple of island pieces. YEAR: 1995
EXTT0=
EXTT1=
EXTT2=
EXTT3=
EXTT4=
EXTT5=
EXTT6=
EXTT7=
EXTT8=
EXTT9=
EXTT10=
EXTT11=
EXTT12=
EXTT13=
PLAYORDER=
